{
	"asset":{
		"generator":"Khronos glTF Blender I/O v4.5.47",
		"version":"2.0"
	},
	"scene":0,
	"scenes":[
		{
			"name":"Scene",
			"nodes":[
				0
			]
		}
	],
	"nodes":[
		{
			"mesh":0,
			"name":"dragon_vrip_res2"
		}
	],
	"meshes":[
		{
			"name":"dragon_vrip_res2",
			"primitives":[
				{
					"attributes":{
						"POSITION":0,
						"NORMAL":1
					},
					"indices":2
				}
			]
		}
	],
	"accessors":[
		{
			"bufferView":0,
			"componentType":5126,
			"count":602889,
			"max":[
				1.3604804277420044,
				0.9225146174430847,
				0.6582595705986023
			],
			"min":[
				-1.0549185276031494,
				-0.7822409868240356,
				-0.4217599034309387
			],
			"type":"VEC3"
		},
		{
			"bufferView":1,
			"componentType":5126,
			"count":602889,
			"type":"VEC3"
		},
		{
			"bufferView":2,
			"componentType":5125,
			"count":603093,
			"type":"SCALAR"
		}
	],
	"bufferViews":[
		{
			"buffer":0,
			"byteLength":7234668,
			"byteOffset":0,
			"target":34962
		},
		{
			"buffer":0,
			"byteLength":7234668,
			"byteOffset":7234668,
			"target":34962
		},
		{
			"buffer":0,
			"byteLength":2412372,
			"byteOffset":14469336,
			"target":34963
		}
	],
	"buffers":[
		{
			"byteLength":16881708,
			"uri":"stanford_dragon.bin"
		}
	]
}
