{
	"asset":{
		"generator":"Khronos glTF Blender I/O v4.5.47",
		"version":"2.0"
	},
	"scene":0,
	"scenes":[
		{
			"name":"Scene",
			"nodes":[
				0
			]
		}
	],
	"nodes":[
		{
			"mesh":0,
			"name":"bun_zipper_res4"
		}
	],
	"meshes":[
		{
			"name":"bun_zipper_res4",
			"primitives":[
				{
					"attributes":{
						"POSITION":0,
						"NORMAL":1
					},
					"indices":2
				}
			]
		}
	],
	"accessors":[
		{
			"bufferView":0,
			"componentType":5126,
			"count":2724,
			"max":[
				1.0964019298553467,
				1.0910292863845825,
				0.8225529193878174
			],
			"min":[
				-1.0568029880523682,
				-1.0190690755844116,
				-0.8060910105705261
			],
			"type":"VEC3"
		},
		{
			"bufferView":1,
			"componentType":5126,
			"count":2724,
			"type":"VEC3"
		},
		{
			"bufferView":2,
			"componentType":5123,
			"count":2724,
			"type":"SCALAR"
		}
	],
	"bufferViews":[
		{
			"buffer":0,
			"byteLength":32688,
			"byteOffset":0,
			"target":34962
		},
		{
			"buffer":0,
			"byteLength":32688,
			"byteOffset":32688,
			"target":34962
		},
		{
			"buffer":0,
			"byteLength":5448,
			"byteOffset":65376,
			"target":34963
		}
	],
	"buffers":[
		{
			"byteLength":70824,
			"uri":"stanford_bunny.bin"
		}
	]
}
