{
	"asset":{
		"generator":"Khronos glTF Blender I/O v4.5.47",
		"version":"2.0"
	},
	"scene":0,
	"scenes":[
		{
			"name":"Scene",
			"nodes":[
				0
			]
		}
	],
	"nodes":[
		{
			"mesh":0,
			"name":"bun_zipper_res2"
		}
	],
	"meshes":[
		{
			"name":"bun_zipper_res2",
			"primitives":[
				{
					"attributes":{
						"POSITION":0,
						"NORMAL":1
					},
					"indices":2
				}
			]
		}
	],
	"accessors":[
		{
			"bufferView":0,
			"componentType":5126,
			"count":48622,
			"max":[
				1.0525542497634888,
				0.9304952621459961,
				0.6393724679946899
			],
			"min":[
				-0.9882827997207642,
				-0.8901008367538452,
				-0.9428772926330566
			],
			"type":"VEC3"
		},
		{
			"bufferView":1,
			"componentType":5126,
			"count":48622,
			"type":"VEC3"
		},
		{
			"bufferView":2,
			"componentType":5123,
			"count":48642,
			"type":"SCALAR"
		}
	],
	"bufferViews":[
		{
			"buffer":0,
			"byteLength":583464,
			"byteOffset":0,
			"target":34962
		},
		{
			"buffer":0,
			"byteLength":583464,
			"byteOffset":583464,
			"target":34962
		},
		{
			"buffer":0,
			"byteLength":97284,
			"byteOffset":1166928,
			"target":34963
		}
	],
	"buffers":[
		{
			"byteLength":1264212,
			"uri":"stanford_bunny.bin"
		}
	]
}
