{
	"asset":{
		"generator":"Khronos glTF Blender I/O v4.5.47",
		"version":"2.0"
	},
	"scene":0,
	"scenes":[
		{
			"name":"Scene",
			"nodes":[
				0
			]
		}
	],
	"nodes":[
		{
			"mesh":0,
			"name":"bun_zipper_res3"
		}
	],
	"meshes":[
		{
			"name":"bun_zipper_res3",
			"primitives":[
				{
					"attributes":{
						"POSITION":0,
						"NORMAL":1
					},
					"indices":2
				}
			]
		}
	],
	"accessors":[
		{
			"bufferView":0,
			"componentType":5126,
			"count":11300,
			"max":[
				1.114160418510437,
				1.123066782951355,
				0.7632154822349548
			],
			"min":[
				-1.0105047225952148,
				-0.9482393264770508,
				-0.8803977966308594
			],
			"type":"VEC3"
		},
		{
			"bufferView":1,
			"componentType":5126,
			"count":11300,
			"type":"VEC3"
		},
		{
			"bufferView":2,
			"componentType":5123,
			"count":11304,
			"type":"SCALAR"
		}
	],
	"bufferViews":[
		{
			"buffer":0,
			"byteLength":135600,
			"byteOffset":0,
			"target":34962
		},
		{
			"buffer":0,
			"byteLength":135600,
			"byteOffset":135600,
			"target":34962
		},
		{
			"buffer":0,
			"byteLength":22608,
			"byteOffset":271200,
			"target":34963
		}
	],
	"buffers":[
		{
			"byteLength":293808,
			"uri":"stanford_bunny.bin"
		}
	]
}
