{
	"asset":{
		"generator":"Khronos glTF Blender I/O v4.5.47",
		"version":"2.0"
	},
	"scene":0,
	"scenes":[
		{
			"name":"Scene",
			"nodes":[
				0
			]
		}
	],
	"nodes":[
		{
			"mesh":0,
			"name":"dragon_vrip"
		}
	],
	"meshes":[
		{
			"name":"dragon_vrip",
			"primitives":[
				{
					"attributes":{
						"POSITION":0,
						"NORMAL":1
					},
					"indices":2
				}
			]
		}
	],
	"accessors":[
		{
			"bufferView":0,
			"componentType":5126,
			"count":2612007,
			"max":[
				1.1775017976760864,
				0.8056219816207886,
				0.5323649048805237
			],
			"min":[
				-1.0755587816238403,
				-0.7827407717704773,
				-0.4751477837562561
			],
			"type":"VEC3"
		},
		{
			"bufferView":1,
			"componentType":5126,
			"count":2612007,
			"type":"VEC3"
		},
		{
			"bufferView":2,
			"componentType":5125,
			"count":2614242,
			"type":"SCALAR"
		}
	],
	"bufferViews":[
		{
			"buffer":0,
			"byteLength":31344084,
			"byteOffset":0,
			"target":34962
		},
		{
			"buffer":0,
			"byteLength":31344084,
			"byteOffset":31344084,
			"target":34962
		},
		{
			"buffer":0,
			"byteLength":10456968,
			"byteOffset":62688168,
			"target":34963
		}
	],
	"buffers":[
		{
			"byteLength":73145136,
			"uri":"stanford_dragon.bin"
		}
	]
}
