{
	"asset":{
		"generator":"Khronos glTF Blender I/O v4.5.47",
		"version":"2.0"
	},
	"scene":0,
	"scenes":[
		{
			"name":"Scene",
			"nodes":[
				0
			]
		}
	],
	"nodes":[
		{
			"mesh":0,
			"name":"bun_zipper"
		}
	],
	"meshes":[
		{
			"name":"bun_zipper",
			"primitives":[
				{
					"attributes":{
						"POSITION":0,
						"NORMAL":1
					},
					"indices":2
				}
			]
		}
	],
	"accessors":[
		{
			"bufferView":0,
			"componentType":5126,
			"count":207693,
			"max":[
				1.0637624263763428,
				1.0754040479660034,
				0.8238093256950378
			],
			"min":[
				-1.0887571573257446,
				-1.0582391023635864,
				-0.8444843292236328
			],
			"type":"VEC3"
		},
		{
			"bufferView":1,
			"componentType":5126,
			"count":207693,
			"type":"VEC3"
		},
		{
			"bufferView":2,
			"componentType":5125,
			"count":208353,
			"type":"SCALAR"
		}
	],
	"bufferViews":[
		{
			"buffer":0,
			"byteLength":2492316,
			"byteOffset":0,
			"target":34962
		},
		{
			"buffer":0,
			"byteLength":2492316,
			"byteOffset":2492316,
			"target":34962
		},
		{
			"buffer":0,
			"byteLength":833412,
			"byteOffset":4984632,
			"target":34963
		}
	],
	"buffers":[
		{
			"byteLength":5818044,
			"uri":"stanford_bunny.bin"
		}
	]
}
